<svg width="26" height="32" viewBox="0 0 26 32" fill="none" xmlns="http://www.w3.org/2000/svg">
<path d="M22.1667 6.33333H19C19 2.83417 16.1658 0 12.6667 0C9.1675 0 6.33333 2.83417 6.33333 6.33333H3.16667C1.425 6.33333 0 7.75833 0 9.5V28.5C0 30.2417 1.425 31.6667 3.16667 31.6667H22.1667C23.9083 31.6667 25.3333 30.2417 25.3333 28.5V9.5C25.3333 7.75833 23.9083 6.33333 22.1667 6.33333ZM12.6667 3.16667C14.4083 3.16667 15.8333 4.59167 15.8333 6.33333H9.5C9.5 4.59167 10.925 3.16667 12.6667 3.16667ZM22.1667 28.5H3.16667V9.5H6.33333V12.6667C6.33333 13.5375 7.04583 14.25 7.91667 14.25C8.7875 14.25 9.5 13.5375 9.5 12.6667V9.5H15.8333V12.6667C15.8333 13.5375 16.5458 14.25 17.4167 14.25C18.2875 14.25 19 13.5375 19 12.6667V9.5H22.1667V28.5Z" fill="#002F52"/>
</svg>
